<svg width="139" height="415" viewBox="0 0 139 415" fill="none" xmlns="http://www.w3.org/2000/svg">
<path d="M-0.000110785 414.406C-0.000110785 375.098 30.9993 343.226 69.232 343.226C107.465 343.226 138.407 375.098 138.407 414.406" fill="#0000FF"/>
<path d="M-0.000110785 347.181C-0.000110785 307.872 30.9993 276 69.232 276C107.465 276 138.407 307.872 138.407 347.181" fill="#0000FF"/>
<path d="M-0.000110785 276.406C-0.000110785 237.098 30.9993 205.226 69.232 205.226C107.465 205.226 138.407 237.098 138.407 276.406" fill="#0000FF"/>
<path d="M-0.000110785 209.181C-0.000110785 169.872 30.9993 138 69.232 138C107.465 138 138.407 169.872 138.407 209.181" fill="#0000FF"/>
<path d="M-0.000110785 138.406C-0.000110785 99.0975 30.9993 67.2256 69.232 67.2256C107.465 67.2256 138.407 99.0975 138.407 138.406" fill="#0000FF"/>
<path d="M-0.000110785 71.1807C-0.000110785 31.8719 30.9993 0 69.232 0C107.465 0 138.407 31.8719 138.407 71.1807" fill="#0000FF"/>
</svg>
