<svg width="511" height="788" viewBox="0 0 511 788" fill="none" xmlns="http://www.w3.org/2000/svg">
<path d="M509.546 64.9794C509.546 73.334 502.844 81.5723 490.004 89.2675C477.227 96.9248 458.672 103.856 435.655 109.69C389.637 121.355 326.01 128.581 255.692 128.581C185.374 128.581 121.748 121.355 75.7294 109.69C52.7128 103.856 34.1576 96.9248 21.3806 89.2675C8.54049 81.5723 1.83887 73.334 1.83887 64.9794C1.83887 56.6248 8.54049 48.3865 21.3806 40.6914C34.1576 33.034 52.7128 26.103 75.7294 20.2686C121.748 8.60372 185.374 1.37793 255.692 1.37793C326.01 1.37793 389.637 8.60372 435.655 20.2686C458.672 26.103 477.227 33.034 490.004 40.6914C502.844 48.3865 509.546 56.6248 509.546 64.9794Z" stroke="#95C11F" stroke-width="2"/>
<path d="M509.546 115.628C509.546 123.982 502.844 132.221 490.004 139.916C477.227 147.573 458.672 154.504 435.655 160.339C389.637 172.004 326.01 179.229 255.692 179.229C185.374 179.229 121.748 172.004 75.7294 160.339C52.7128 154.504 34.1576 147.573 21.3806 139.916C8.54049 132.221 1.83887 123.982 1.83887 115.628C1.83887 107.273 8.54049 99.0349 21.3806 91.3398C34.1576 83.6825 52.7128 76.7514 75.7294 70.917C121.748 59.2522 185.374 52.0264 255.692 52.0264C326.01 52.0264 389.637 59.2522 435.655 70.917C458.672 76.7514 477.227 83.6825 490.004 91.3398C502.844 99.0349 509.546 107.273 509.546 115.628Z" stroke="#95C11F" stroke-width="2"/>
<path d="M509.546 166.275C509.546 174.63 502.844 182.868 490.004 190.563C477.227 198.221 458.672 205.152 435.655 210.986C389.637 222.651 326.01 229.877 255.692 229.877C185.374 229.877 121.748 222.651 75.7294 210.986C52.7128 205.152 34.1576 198.221 21.3806 190.563C8.54049 182.868 1.83887 174.63 1.83887 166.275C1.83887 157.921 8.54049 149.682 21.3806 141.987C34.1576 134.33 52.7128 127.399 75.7294 121.565C121.748 109.9 185.374 102.674 255.692 102.674C326.01 102.674 389.637 109.9 435.655 121.565C458.672 127.399 477.227 134.33 490.004 141.987C502.844 149.682 509.546 157.921 509.546 166.275Z" stroke="#95C11F" stroke-width="2"/>
<path d="M509.546 216.923C509.546 225.277 502.844 233.516 490.004 241.211C477.227 248.868 458.672 255.799 435.655 261.634C389.637 273.298 326.01 280.524 255.692 280.524C185.374 280.524 121.748 273.298 75.7294 261.634C52.7128 255.799 34.1576 248.868 21.3806 241.211C8.54049 233.516 1.83887 225.277 1.83887 216.923C1.83887 208.568 8.54049 200.33 21.3806 192.635C34.1576 184.977 52.7128 178.046 75.7294 172.212C121.748 160.547 185.374 153.321 255.692 153.321C326.01 153.321 389.637 160.547 435.655 172.212C458.672 178.046 477.227 184.977 490.004 192.635C502.844 200.33 509.546 208.568 509.546 216.923Z" stroke="#95C11F" stroke-width="2"/>
<path d="M509.546 267.57C509.546 275.925 502.844 284.163 490.004 291.858C477.227 299.516 458.672 306.447 435.655 312.281C389.637 323.946 326.01 331.172 255.692 331.172C185.374 331.172 121.748 323.946 75.7294 312.281C52.7128 306.447 34.1576 299.516 21.3806 291.858C8.54049 284.163 1.83887 275.925 1.83887 267.57C1.83887 259.216 8.54049 250.977 21.3806 243.282C34.1576 235.625 52.7128 228.694 75.7294 222.859C121.748 211.195 185.374 203.969 255.692 203.969C326.01 203.969 389.637 211.195 435.655 222.859C458.672 228.694 477.227 235.625 490.004 243.282C502.844 250.977 509.546 259.216 509.546 267.57Z" stroke="#95C11F" stroke-width="2"/>
<path d="M509.546 318.218C509.546 326.572 502.844 334.811 490.004 342.506C477.227 350.163 458.672 357.094 435.655 362.928C389.637 374.593 326.01 381.819 255.692 381.819C185.374 381.819 121.748 374.593 75.7294 362.928C52.7128 357.094 34.1576 350.163 21.3806 342.506C8.54049 334.811 1.83887 326.572 1.83887 318.218C1.83887 309.863 8.54049 301.625 21.3806 293.93C34.1576 286.272 52.7128 279.341 75.7294 273.507C121.748 261.842 185.374 254.616 255.692 254.616C326.01 254.616 389.637 261.842 435.655 273.507C458.672 279.341 477.227 286.272 490.004 293.93C502.844 301.625 509.546 309.863 509.546 318.218Z" stroke="#95C11F" stroke-width="2"/>
<path d="M509.546 368.865C509.546 377.22 502.844 385.458 490.004 393.153C477.227 400.811 458.672 407.742 435.655 413.576C389.637 425.241 326.01 432.467 255.692 432.467C185.374 432.467 121.748 425.241 75.7294 413.576C52.7128 407.742 34.1576 400.811 21.3806 393.153C8.54049 385.458 1.83887 377.22 1.83887 368.865C1.83887 360.511 8.54049 352.272 21.3806 344.577C34.1576 336.92 52.7128 329.989 75.7294 324.154C121.748 312.489 185.374 305.264 255.692 305.264C326.01 305.264 389.637 312.489 435.655 324.154C458.672 329.989 477.227 336.92 490.004 344.577C502.844 352.272 509.546 360.511 509.546 368.865Z" stroke="#95C11F" stroke-width="2"/>
<path d="M509.546 419.514C509.546 427.868 502.844 436.107 490.004 443.802C477.227 451.459 458.672 458.39 435.655 464.224C389.637 475.889 326.01 483.115 255.692 483.115C185.374 483.115 121.748 475.889 75.7294 464.224C52.7128 458.39 34.1576 451.459 21.3806 443.802C8.54049 436.107 1.83887 427.868 1.83887 419.514C1.83887 411.159 8.54049 402.921 21.3806 395.226C34.1576 387.568 52.7128 380.637 75.7294 374.803C121.748 363.138 185.374 355.912 255.692 355.912C326.01 355.912 389.637 363.138 435.655 374.803C458.672 380.637 477.227 387.568 490.004 395.226C502.844 402.921 509.546 411.159 509.546 419.514Z" stroke="#95C11F" stroke-width="2"/>
<path d="M509.546 470.16C509.546 478.515 502.844 486.753 490.004 494.448C477.227 502.105 458.672 509.036 435.655 514.871C389.637 526.536 326.01 533.762 255.692 533.762C185.374 533.762 121.748 526.536 75.7294 514.871C52.7128 509.036 34.1576 502.105 21.3806 494.448C8.54049 486.753 1.83887 478.515 1.83887 470.16C1.83887 461.806 8.54049 453.567 21.3806 445.872C34.1576 438.215 52.7128 431.284 75.7294 425.449C121.748 413.784 185.374 406.559 255.692 406.559C326.01 406.559 389.637 413.784 435.655 425.449C458.672 431.284 477.227 438.215 490.004 445.872C502.844 453.567 509.546 461.806 509.546 470.16Z" stroke="#95C11F" stroke-width="2"/>
<path d="M509.546 520.809C509.546 529.163 502.844 537.401 490.004 545.097C477.227 552.754 458.672 559.685 435.655 565.519C389.637 577.184 326.01 584.41 255.692 584.41C185.374 584.41 121.748 577.184 75.7294 565.519C52.7128 559.685 34.1576 552.754 21.3806 545.097C8.54049 537.401 1.83887 529.163 1.83887 520.809C1.83887 512.454 8.54049 504.216 21.3806 496.52C34.1576 488.863 52.7128 481.932 75.7294 476.098C121.748 464.433 185.374 457.207 255.692 457.207C326.01 457.207 389.637 464.433 435.655 476.098C458.672 481.932 477.227 488.863 490.004 496.52C502.844 504.216 509.546 512.454 509.546 520.809Z" stroke="#95C11F" stroke-width="2"/>
<path d="M509.546 571.455C509.546 579.81 502.844 588.048 490.004 595.743C477.227 603.4 458.672 610.331 435.655 616.166C389.637 627.831 326.01 635.056 255.692 635.056C185.374 635.056 121.748 627.831 75.7294 616.166C52.7128 610.331 34.1576 603.4 21.3806 595.743C8.54049 588.048 1.83887 579.81 1.83887 571.455C1.83887 563.1 8.54049 554.862 21.3806 547.167C34.1576 539.51 52.7128 532.579 75.7294 526.744C121.748 515.079 185.374 507.854 255.692 507.854C326.01 507.854 389.637 515.079 435.655 526.744C458.672 532.579 477.227 539.51 490.004 547.167C502.844 554.862 509.546 563.1 509.546 571.455Z" stroke="#95C11F" stroke-width="2"/>
<path d="M509.546 622.102C509.546 630.457 502.844 638.695 490.004 646.391C477.227 654.048 458.672 660.979 435.655 666.813C389.637 678.478 326.01 685.704 255.692 685.704C185.374 685.704 121.748 678.478 75.7294 666.813C52.7128 660.979 34.1576 654.048 21.3806 646.391C8.54049 638.695 1.83887 630.457 1.83887 622.102C1.83887 613.748 8.54049 605.51 21.3806 597.814C34.1576 590.157 52.7128 583.226 75.7294 577.392C121.748 565.727 185.374 558.501 255.692 558.501C326.01 558.501 389.637 565.727 435.655 577.392C458.672 583.226 477.227 590.157 490.004 597.814C502.844 605.51 509.546 613.748 509.546 622.102Z" stroke="#95C11F" stroke-width="2"/>
<path d="M509.546 672.75C509.546 681.104 502.844 689.343 490.004 697.038C477.227 704.695 458.672 711.626 435.655 717.461C389.637 729.126 326.01 736.351 255.692 736.351C185.374 736.351 121.748 729.126 75.7294 717.461C52.7128 711.626 34.1576 704.695 21.3806 697.038C8.54049 689.343 1.83887 681.104 1.83887 672.75C1.83887 664.395 8.54049 656.157 21.3806 648.462C34.1576 640.805 52.7128 633.873 75.7294 628.039C121.748 616.374 185.374 609.148 255.692 609.148C326.01 609.148 389.637 616.374 435.655 628.039C458.672 633.873 477.227 640.805 490.004 648.462C502.844 656.157 509.546 664.395 509.546 672.75Z" stroke="#95C11F" stroke-width="2"/>
<path d="M509.546 723.398C509.546 731.753 502.844 739.991 490.004 747.686C477.227 755.344 458.672 762.275 435.655 768.109C389.637 779.774 326.01 787 255.692 787C185.374 787 121.748 779.774 75.7294 768.109C52.7128 762.275 34.1576 755.344 21.3806 747.686C8.54049 739.991 1.83887 731.753 1.83887 723.398C1.83887 715.044 8.54049 706.805 21.3806 699.11C34.1576 691.453 52.7128 684.522 75.7294 678.688C121.748 667.023 185.374 659.797 255.692 659.797C326.01 659.797 389.637 667.023 435.655 678.688C458.672 684.522 477.227 691.453 490.004 699.11C502.844 706.805 509.546 715.044 509.546 723.398Z" stroke="#95C11F" stroke-width="2"/>
</svg>
