<svg width="483" height="413" viewBox="0 0 483 413" fill="none" xmlns="http://www.w3.org/2000/svg">
<g clip-path="url(#clip0)">
<path d="M20.6019 157.747C6.8673 171.464 0 187.468 0 206.672C0 225.419 6.8673 241.879 20.6019 255.139C33.8787 268.856 49.9024 275.715 69.1308 275.715C88.3592 275.715 104.383 268.856 118.118 255.139C131.394 241.879 138.262 225.876 138.262 206.672C138.262 187.468 131.394 171.464 118.118 157.747C104.383 144.487 88.3592 137.629 69.1308 137.629C49.9024 137.629 33.8787 144.487 20.6019 157.747ZM93.3953 181.981C100.263 188.839 103.467 196.612 103.467 206.214C103.467 215.816 100.263 223.59 93.3953 230.448C86.528 237.307 78.745 240.965 69.1308 240.965C59.5166 240.965 51.7337 237.307 44.8664 230.448C37.9991 223.59 34.3365 215.816 34.3365 206.214C34.3365 196.612 37.9991 188.382 44.8664 181.981C51.7337 175.122 59.5166 171.922 69.1308 171.922C78.745 171.922 86.528 175.579 93.3953 181.981Z" fill="#95C11F"/>
<path d="M186.791 88.7049C200.526 102.422 207.393 118.425 207.393 137.629V275.258C207.393 294.463 200.526 310.466 186.791 324.183C173.056 337.443 157.033 344.302 137.804 344.302H276.066V344.759C276.066 363.506 282.933 379.509 296.21 392.769C308.571 405.572 323.679 411.973 341.076 412.887C339.245 412.887 337.872 412.43 336.04 411.973H335.582C334.667 411.516 333.751 411.516 332.378 411.059H331.92C331.462 411.059 331.462 410.601 331.004 410.601C330.546 410.601 330.546 410.144 330.089 410.144H329.631C328.715 409.687 327.342 409.23 325.968 408.315C321.848 406.486 319.101 402.828 317.27 398.713C313.149 392.769 310.86 386.368 310.86 379.052C310.86 369.45 314.065 361.677 320.932 354.818C326.884 348.874 333.751 345.673 341.992 345.216H348.859C357.1 345.673 363.967 348.874 369.919 354.818C376.786 361.677 379.991 369.907 379.991 379.052C379.991 388.654 376.786 396.427 369.919 403.285C363.967 409.23 357.1 412.43 349.317 413.345C366.256 411.973 381.364 405.572 393.726 392.769C407.002 379.509 413.87 363.506 413.87 344.302V275.258C433.098 275.258 449.122 268.4 462.856 254.683C476.133 241.423 483 225.419 483 206.215C483 187.011 476.133 171.008 462.856 157.291C449.122 144.031 433.098 137.172 413.87 137.172V68.1291H276.066V67.6719H137.804C157.033 68.5863 173.056 75.4449 186.791 88.7049ZM384.111 304.979C385.485 306.351 386.4 307.722 386.4 310.009C386.4 311.838 385.485 313.667 384.111 315.038C382.738 316.41 381.364 317.324 379.075 317.324C377.244 317.324 375.413 316.41 374.039 315.038C372.666 313.667 371.75 312.295 371.75 310.009C371.75 308.18 372.666 306.351 374.039 304.979C375.413 303.607 376.786 302.693 379.075 302.693C381.364 302.693 383.196 303.607 384.111 304.979ZM315.438 304.979C316.812 306.351 317.27 307.722 317.27 310.009C317.27 311.838 316.812 313.667 315.438 315.038C314.065 316.41 312.234 317.324 310.402 317.324C308.571 317.324 306.74 316.41 305.366 315.038C303.993 313.667 303.077 312.295 303.077 310.009C303.077 308.18 303.993 306.351 305.366 304.979C306.74 303.607 308.113 302.693 310.402 302.693C312.234 302.693 314.065 303.607 315.438 304.979ZM384.111 235.936C385.485 237.308 386.4 238.679 386.4 240.966C386.4 242.794 385.485 244.166 384.111 245.995C382.738 247.367 381.364 247.824 379.075 247.824C377.244 247.824 375.413 247.367 374.039 245.995C372.666 244.623 371.75 242.794 371.75 240.966C371.75 239.137 372.666 237.308 374.039 235.936C375.413 234.564 376.786 233.65 379.075 233.65C381.364 234.107 383.196 234.564 384.111 235.936ZM315.438 235.936C316.812 237.308 317.27 238.679 317.27 240.966C317.27 242.794 316.812 244.166 315.438 245.995C314.065 247.367 312.234 247.824 310.402 247.824C308.571 247.824 306.74 247.367 305.366 245.995C303.993 244.623 303.077 242.794 303.077 240.966C303.077 239.137 303.993 237.308 305.366 235.936C306.74 234.564 308.113 233.65 310.402 233.65C312.234 234.107 314.065 234.564 315.438 235.936ZM384.111 166.893C385.485 168.264 386.4 170.093 386.4 171.922C386.4 173.751 385.485 175.123 384.111 176.952C382.738 178.324 381.364 178.781 379.075 178.781C377.244 178.781 375.413 178.324 374.039 176.952C372.666 175.58 371.75 173.751 371.75 171.922C371.75 170.093 372.666 168.264 374.039 166.893C375.413 165.521 376.786 165.064 379.075 165.064C381.364 165.064 383.196 165.521 384.111 166.893ZM315.438 166.893C316.812 168.264 317.27 170.093 317.27 171.922C317.27 173.751 316.812 175.123 315.438 176.952C314.065 178.324 312.234 178.781 310.402 178.781C308.571 178.781 306.74 178.324 305.366 176.952C303.993 175.58 303.077 173.751 303.077 171.922C303.077 170.093 303.993 168.264 305.366 166.893C306.74 165.521 308.113 165.064 310.402 165.064C312.234 165.064 314.065 165.521 315.438 166.893ZM384.111 97.8496C385.485 99.2214 386.4 101.05 386.4 102.879C386.4 104.708 385.485 106.537 384.111 107.909C382.738 109.281 381.364 109.738 379.075 109.738C377.244 109.738 375.413 109.281 374.039 107.909C372.666 106.537 371.75 104.708 371.75 102.879C371.75 101.05 372.666 99.6786 374.039 97.8496C375.413 96.4779 376.786 96.0207 379.075 96.0207C381.364 96.0207 383.196 96.9352 384.111 97.8496ZM315.438 97.8496C316.812 99.2214 317.27 101.05 317.27 102.879C317.27 104.708 316.812 106.537 315.438 107.909C314.065 109.281 312.234 109.738 310.402 109.738C308.571 109.738 306.74 109.281 305.366 107.909C303.993 106.537 303.077 104.708 303.077 102.879C303.077 101.05 303.993 99.6786 305.366 97.8496C306.74 96.4779 308.113 96.0207 310.402 96.0207C312.234 96.0207 314.065 96.9352 315.438 97.8496Z" fill="#95C11F"/>
<path d="M345.195 69.043L276.065 68.5857C276.065 49.8389 282.932 33.8355 296.209 20.1183C309.486 6.8584 325.509 -0.000183105 344.738 -0.457428C335.123 -0.000183105 327.341 3.2005 320.473 10.0591C313.606 16.9177 310.401 24.6907 310.401 34.2928C310.401 43.8948 313.606 52.1251 320.473 58.5265C327.341 65.385 335.581 69.043 345.195 69.043Z" fill="#95C11F"/>
<path d="M413.868 69.043L344.738 68.5857C354.352 68.5857 362.135 65.385 369.002 58.5265C375.869 51.6679 379.074 43.8948 379.074 34.2928C379.074 25.148 375.869 16.9177 369.002 10.0591C362.135 3.2005 354.352 -0.000183105 344.738 -0.457428C363.966 -0.000183105 379.99 6.40117 393.266 20.1183C407.459 33.8355 413.868 50.2962 413.868 69.043Z" fill="#95C11F"/>
</g>
<defs>
<clipPath id="clip0">
<rect width="412.887" height="483" fill="white" transform="translate(0 412.887) rotate(-90)"/>
</clipPath>
</defs>
</svg>
