<svg width="505" height="304" viewBox="0 0 505 304" fill="none" xmlns="http://www.w3.org/2000/svg">
<g clip-path="url(#clip0)">
<path d="M490.58 14.7599C480.856 5.03135 469.119 -0.000652313 455.035 -0.336121C462.077 -0.000652313 467.778 2.34763 472.808 7.37962C477.838 12.4116 480.185 18.1145 480.185 25.1593C480.185 32.2041 477.502 38.2425 472.472 42.9391C467.443 47.9711 461.742 50.3193 454.7 50.3193H505.334C504.999 36.5652 500.304 24.4884 490.58 14.7599Z" fill="white"/>
<path d="M404.067 -0.000274658C389.983 -0.000274658 378.247 5.03174 368.523 15.0957C358.463 24.8243 353.433 36.5656 353.433 50.6552H303.134L0 202.286L0 252.606H75.7835V201.951H100.933V252.606H176.716V151.295H202.201V252.606H277.985V100.975H303.134V252.606H353.768C353.768 266.696 358.798 278.437 368.858 288.166C378.582 298.23 390.319 303.262 404.402 303.262H455.036V252.606V201.951C469.12 201.951 480.857 196.919 490.581 186.855C500.641 177.126 505.671 165.049 505.671 150.96C505.671 136.87 500.641 125.129 490.581 115.4C480.857 105.336 469.12 100.304 455.036 100.304V49.6488V-1.00665H404.067V-0.000274658Z" fill="white"/>
<path d="M479.851 278.101C479.851 285.146 477.503 290.849 472.473 295.881C467.444 300.913 461.743 303.261 454.701 303.597C468.785 303.261 480.521 298.565 490.246 288.501C499.97 278.772 505 267.031 505 252.941H454.366C461.408 252.941 467.108 255.289 472.138 260.321C477.503 265.018 479.851 271.056 479.851 278.101Z" fill="white"/>
</g>
<defs>
<clipPath id="clip0">
<rect width="303.262" height="505" fill="white" transform="translate(0 303.262) rotate(-90)"/>
</clipPath>
</defs>
</svg>
