<svg width="668" height="320" viewBox="0 0 668 320" fill="none" xmlns="http://www.w3.org/2000/svg">
<g clip-path="url(#clip0)">
<path d="M585.661 300.066C573.416 312.323 558.637 318.662 540.903 318.662C540.903 300.912 547.237 286.12 559.482 273.863C572.149 261.185 586.928 254.845 604.663 254.845C604.24 272.595 597.907 287.81 585.661 300.066Z" fill="#0000FF"/>
<path d="M648.999 236.672C636.754 248.928 621.975 255.268 604.241 255.268C604.241 237.517 610.574 222.725 622.82 210.469C635.487 197.79 650.266 191.45 668 191.45C668 209.201 661.667 223.993 648.999 236.672Z" fill="#0000FF"/>
<path d="M513.879 227.797C512.612 229.065 510.923 229.91 509.234 229.91C507.545 229.91 506.278 229.065 504.589 227.797C503.323 226.529 502.9 225.261 502.9 223.148C502.9 221.458 503.323 220.19 504.589 218.499C505.856 217.231 507.545 216.809 509.234 216.809C510.923 216.809 512.612 217.231 513.879 218.499C515.146 219.767 515.568 221.458 515.568 223.148C515.568 225.261 514.723 226.529 513.879 227.797Z" fill="#0000FF"/>
<path d="M486.855 136.932C480.521 143.271 477.143 150.456 477.143 159.331C477.143 168.206 480.521 175.391 486.855 181.73C493.188 188.07 500.367 191.028 509.234 191.028C518.101 191.028 525.702 188.07 531.613 181.73C537.947 175.391 540.903 167.784 540.903 159.331C540.903 150.456 537.947 142.849 531.613 136.932C525.279 130.592 518.101 127.634 509.234 127.634C500.367 127.634 492.766 131.015 486.855 136.932ZM526.968 141.581C532.035 146.652 534.569 152.569 534.569 159.754C534.569 166.938 532.035 172.855 526.968 177.927C521.901 182.576 515.99 185.112 508.812 185.112C502.056 185.112 496.144 182.576 491.077 177.927C486.01 172.855 483.477 166.938 483.477 159.754C483.477 152.569 486.01 146.652 491.077 141.581C496.144 136.509 502.056 133.973 508.812 133.973C515.99 133.973 521.901 136.509 526.968 141.581Z" fill="#0000FF"/>
<path d="M645.199 168.629C642.666 171.165 639.71 172.433 636.332 172.433C632.532 172.433 629.576 171.165 627.465 168.629C624.931 166.093 623.665 163.135 623.665 159.754C623.665 156.373 624.931 153.414 627.465 150.879C629.576 148.343 632.532 147.075 636.332 147.075C639.71 147.075 642.666 148.343 645.199 150.879C647.733 153.414 649 156.373 649 159.754C648.577 163.135 647.311 166.093 645.199 168.629Z" fill="#0000FF"/>
<path d="M449.696 163.981C448.429 165.248 447.163 166.094 445.051 166.094C443.363 166.094 442.096 165.248 440.407 163.981C439.14 162.713 438.718 161.445 438.718 159.332C438.718 157.641 439.14 155.951 440.407 154.683C441.674 153.415 443.363 152.57 445.051 152.57C446.74 152.57 448.429 153.415 449.696 154.683C450.963 155.951 451.807 157.219 451.807 159.332C451.807 161.445 451.385 163.135 449.696 163.981Z" fill="#0000FF"/>
<path d="M576.794 163.981C575.527 165.248 573.838 166.094 572.149 166.094C570.46 166.094 568.771 165.248 567.504 163.981C566.238 162.713 565.815 161.445 565.815 159.332C565.815 157.641 566.238 155.951 567.504 154.683C568.771 153.415 570.46 152.57 572.149 152.57C573.838 152.57 575.105 153.415 576.794 154.683C578.061 155.951 578.483 157.219 578.483 159.332C578.483 161.445 578.061 163.135 576.794 163.981Z" fill="#0000FF"/>
<path d="M622.82 109.038C610.574 96.782 604.241 81.99 604.241 64.2396C621.975 64.2396 636.754 70.579 648.999 82.8353C661.667 95.5142 668 110.306 668 128.057C650.266 127.634 635.487 121.717 622.82 109.038Z" fill="#0000FF"/>
<path d="M513.879 100.586C512.612 101.854 510.923 102.276 509.234 102.276C507.545 102.276 506.278 101.854 504.589 100.586C503.323 99.318 502.9 97.6275 502.9 95.9369C502.9 94.2464 503.323 92.5559 504.589 91.288C505.856 90.0201 507.545 89.1749 509.234 89.1749C510.923 89.1749 512.612 90.0201 513.879 91.288C515.146 92.5559 515.568 93.8238 515.568 95.9369C515.568 97.6275 514.723 98.8953 513.879 100.586Z" fill="#0000FF"/>
<path d="M559.059 45.2209C546.814 32.9647 540.48 17.75 540.48 -0.000411987C558.215 -0.000411987 572.994 6.33903 585.239 19.0179C597.907 31.6968 604.24 46.4888 604.24 64.2393C586.928 64.2393 571.727 57.8998 559.059 45.2209Z" fill="#0000FF"/>
<path d="M241.527 19.018C229.282 31.2743 222.948 46.489 222.948 64.2394H159.188L31.6688 128.056C23.2238 128.056 15.6233 131.015 9.28951 137.354C2.95575 143.271 0 150.878 0 159.754C0 168.206 2.95575 175.814 9.28951 182.153C15.6233 188.07 23.2238 191.451 31.6688 191.451L159.188 255.268H222.948C222.948 273.018 229.282 287.81 241.527 300.489C253.772 312.746 268.973 319.085 286.708 319.085L477.143 319.085H540.48C523.168 319.085 507.967 312.746 495.722 300.489C483.899 288.656 477.987 275.131 477.143 259.072V255.691V255.268C459.408 255.268 444.63 248.928 432.384 236.672C419.717 223.993 413.383 209.201 413.383 191.451V128.056C413.383 110.306 419.717 95.5139 432.384 82.8351C443.785 71.4241 457.297 65.0846 472.92 64.2394H476.721V64.662V64.2394V60.8583C477.565 44.7984 483.899 30.8516 495.3 19.4406C507.545 6.76175 522.324 0.422302 540.058 0.422302H476.721L286.286 0.422302V-0.000305176C268.973 -0.000305176 253.772 6.33914 241.527 19.018ZM449.697 282.316C451.386 284.007 451.808 285.275 451.808 286.965C451.808 288.656 450.963 290.346 449.697 291.614C448.43 292.882 447.163 293.305 445.052 293.305C443.363 293.305 442.096 292.882 440.407 291.614C439.14 290.346 438.718 288.656 438.718 286.965C438.718 285.275 439.14 284.007 440.407 282.316C441.674 281.048 443.363 280.626 445.052 280.626C447.163 280.626 448.852 281.471 449.697 282.316ZM386.359 282.316C387.626 284.007 388.47 285.275 388.47 286.965C388.47 288.656 387.626 290.346 386.359 291.614C385.092 292.882 383.826 293.305 381.714 293.305C380.025 293.305 378.336 292.882 377.07 291.614C375.803 290.346 374.958 288.656 374.958 286.965C374.958 285.275 375.803 284.007 377.07 282.316C378.336 281.048 379.603 280.626 381.714 280.626C383.826 280.626 385.092 281.471 386.359 282.316ZM322.599 282.316C323.866 283.584 324.288 285.275 324.288 286.965C324.288 288.656 323.866 290.346 322.599 291.614C321.332 292.882 319.643 293.305 317.954 293.305C316.266 293.305 314.576 292.882 313.31 291.614C312.043 290.346 311.198 288.656 311.198 286.965C311.198 285.275 312.043 284.007 313.31 282.316C314.576 281.048 315.843 280.626 317.954 280.626C319.643 280.626 321.332 281.471 322.599 282.316ZM295.575 150.456C301.909 156.795 309.087 159.754 317.954 159.754C309.087 159.754 301.487 162.712 295.575 169.051C289.241 175.391 286.286 182.998 286.286 191.451C286.286 182.998 283.33 175.391 276.996 169.051C270.662 162.712 263.062 159.754 254.617 159.754C263.484 159.754 270.662 156.795 276.996 150.456C283.33 144.116 286.286 136.932 286.286 128.056C286.286 136.509 289.664 144.116 295.575 150.456ZM168.478 150.456C174.812 156.795 181.99 159.754 190.857 159.754C181.99 159.754 174.812 162.712 168.478 169.051C162.144 175.391 158.766 182.998 158.766 191.451C158.766 182.998 155.81 175.391 149.477 169.051C143.143 162.712 135.965 159.754 127.097 159.754C135.965 159.754 143.565 156.795 149.477 150.456C155.81 144.116 158.766 136.932 158.766 128.056C158.766 136.509 162.144 144.116 168.478 150.456ZM449.697 27.4706C450.963 28.7385 451.808 30.429 451.808 32.1195C451.808 33.81 450.963 35.0779 449.697 36.7684C448.43 38.0363 447.163 38.459 445.052 38.459C443.363 38.459 442.096 38.0363 440.407 36.7684C439.14 35.5005 438.718 33.81 438.718 32.1195C438.718 30.429 439.14 28.7385 440.407 27.4706C441.674 26.2027 443.363 25.7801 445.052 25.7801C447.163 25.7801 448.852 26.6253 449.697 27.4706ZM386.359 27.4706C387.626 28.7385 388.47 30.429 388.47 32.1195C388.47 33.81 387.626 35.0779 386.359 36.7684C385.092 38.0363 383.826 38.459 381.714 38.459C380.025 38.459 378.336 38.0363 377.07 36.7684C375.803 35.5005 374.958 33.81 374.958 32.1195C374.958 30.429 375.803 28.7385 377.07 27.4706C378.336 26.2027 379.603 25.7801 381.714 25.7801C383.826 25.7801 385.092 26.6253 386.359 27.4706ZM322.599 27.4706C323.866 28.7385 324.288 30.429 324.288 32.1195C324.288 33.81 323.866 35.0779 322.599 36.7684C321.332 38.0363 319.643 38.459 317.954 38.459C316.266 38.459 314.576 38.0363 313.31 36.7684C312.043 35.5005 311.198 33.81 311.198 32.1195C311.198 30.429 312.043 28.7385 313.31 27.4706C314.576 26.2027 315.843 25.7801 317.954 25.7801C319.643 25.7801 321.332 26.6253 322.599 27.4706Z" fill="#0000FF"/>
</g>
<defs>
<clipPath id="clip0">
<rect width="319.085" height="668" fill="white" transform="translate(0 319.085) rotate(-90)"/>
</clipPath>
</defs>
</svg>
