<svg width="630" height="204" viewBox="0 0 630 204" fill="none" xmlns="http://www.w3.org/2000/svg">
<path d="M79.4841 1C80.3989 33.5206 97.3763 99.2494 157.968 102" stroke="black" stroke-width="2"/>
<path d="M79.4841 203C80.3989 170.479 97.3763 104.751 157.968 102" stroke="black" stroke-width="2"/>
<path d="M79.4841 1C78.5694 33.5206 61.592 99.2494 1.00006 102" stroke="black" stroke-width="2"/>
<path d="M79.4841 203C78.5694 170.479 61.592 104.751 1.00006 102" stroke="black" stroke-width="2"/>
<path d="M236.484 1C237.399 33.5206 254.376 99.2494 314.968 102" stroke="black" stroke-width="2"/>
<path d="M236.484 203C237.399 170.479 254.376 104.751 314.968 102" stroke="black" stroke-width="2"/>
<path d="M236.484 1C235.569 33.5206 218.592 99.2494 158 102" stroke="black" stroke-width="2"/>
<path d="M236.484 203C235.569 170.479 218.592 104.751 158 102" stroke="black" stroke-width="2"/>
<path d="M393.484 1C394.399 33.5206 411.376 99.2494 471.968 102" stroke="black" stroke-width="2"/>
<path d="M393.484 203C394.399 170.479 411.376 104.751 471.968 102" stroke="black" stroke-width="2"/>
<path d="M393.484 1C392.569 33.5206 375.592 99.2494 315 102" stroke="black" stroke-width="2"/>
<path d="M393.484 203C392.569 170.479 375.592 104.751 315 102" stroke="black" stroke-width="2"/>
<path d="M550.484 1C551.399 33.5206 568.376 99.2494 628.968 102" stroke="black" stroke-width="2"/>
<path d="M550.484 203C551.399 170.479 568.376 104.751 628.968 102" stroke="black" stroke-width="2"/>
<path d="M550.484 1C549.569 33.5206 532.592 99.2494 472 102" stroke="black" stroke-width="2"/>
<path d="M550.484 203C549.569 170.479 532.592 104.751 472 102" stroke="black" stroke-width="2"/>
</svg>
