<svg width="159" height="204" viewBox="0 0 159 204" fill="none" xmlns="http://www.w3.org/2000/svg">
<path d="M5 101.5C58.2 99.5 77.1667 37.6667 80 7C87.6 85 134.5 102.5 157 101.5C95.4 106.3 80 171.167 80 203C73.6 123 27.3333 102 5 101.5Z" fill="#0000FE"/>
<path d="M79.4841 1C80.3989 33.5206 97.3763 99.2494 157.968 102" stroke="black" stroke-width="2"/>
<path d="M79.4841 203C80.3989 170.479 97.3763 104.751 157.968 102" stroke="black" stroke-width="2"/>
<path d="M79.4841 1C78.5694 33.5206 61.592 99.2494 1.00006 102" stroke="black" stroke-width="2"/>
<path d="M79.4841 203C78.5694 170.479 61.592 104.751 1.00006 102" stroke="black" stroke-width="2"/>
</svg>
