<svg width="142" height="142" viewBox="0 0 142 142" fill="none" xmlns="http://www.w3.org/2000/svg">
<rect width="142" height="142" fill="white"/>
<path d="M114.012 27.8135H27.5542V113.163H114.012V27.8135Z" fill="white" stroke="#95C11F" stroke-width="2" stroke-miterlimit="10"/>
<path d="M135.604 117.137C140.482 121.924 140.482 129.691 135.604 134.478C130.725 139.264 122.866 139.264 117.987 134.478C113.109 129.691 114.102 113.253 114.102 113.253C114.102 113.253 130.725 112.35 135.604 117.137Z" fill="white" stroke="#95C11F" stroke-width="2" stroke-miterlimit="10"/>
<path d="M6.0528 117.137C1.1743 121.924 1.1743 129.691 6.0528 134.478C10.9313 139.264 18.7911 139.264 23.6696 134.478C28.5481 129.691 27.5543 113.253 27.5543 113.253C27.5543 113.253 10.841 112.35 6.0528 117.137Z" fill="white" stroke="#95C11F" stroke-width="2" stroke-miterlimit="10"/>
<path d="M135.514 24.0207C140.392 19.2339 140.392 11.4667 135.514 6.67993C130.635 1.89315 122.775 1.89315 117.897 6.67993C113.018 11.4667 114.012 27.9043 114.012 27.9043C114.012 27.9043 130.635 28.8075 135.514 24.0207Z" fill="white" stroke="#95C11F" stroke-width="2" stroke-miterlimit="10"/>
<path d="M5.87237 24.0212C1.08421 19.1441 1.08421 11.3769 5.87237 6.59008C10.6605 1.80331 18.6107 1.80331 23.4892 6.59008C28.3677 11.3769 27.3739 27.8145 27.3739 27.8145C27.3739 27.8145 10.7509 28.808 5.87237 24.0212Z" fill="white" stroke="#95C11F" stroke-width="2" stroke-miterlimit="10"/>
<path d="M110.579 25.1046C110.579 12.9119 92.601 3.06738 70.4671 3.06738C48.3331 3.06738 30.4453 12.9119 30.4453 25.1046H110.579Z" fill="white" stroke="#95C11F" stroke-width="2" stroke-miterlimit="10"/>
<path d="M30.5356 116.054C30.5356 128.246 48.5138 138.091 70.6478 138.091C92.7817 138.091 110.76 128.246 110.76 116.054H30.5356Z" fill="white" stroke="#95C11F" stroke-width="2" stroke-miterlimit="10"/>
<path d="M24.3019 31.2461C12.0153 31.2461 1.9873 49.0385 1.9873 70.8951C1.9873 92.7517 12.0153 110.454 24.3019 110.454V31.2461Z" fill="white" stroke="#95C11F" stroke-width="2" stroke-miterlimit="10"/>
<path d="M116.903 30.9756C129.19 30.9756 139.218 48.6776 139.218 70.5342C139.218 92.3909 129.19 110.093 116.903 110.093V30.9756Z" fill="white" stroke="#95C11F" stroke-width="2" stroke-miterlimit="10"/>
<path d="M113.56 28.4473C113.56 28.4473 108.772 42.7173 96.847 54.4584C84.9217 66.1996 70.5573 70.9864 70.5573 70.9864C70.5573 70.9864 75.3454 56.7163 87.2706 44.9752C99.1959 33.234 113.56 28.4473 113.56 28.4473Z" fill="white" stroke="#95C11F" stroke-width="2" stroke-miterlimit="10"/>
<path d="M70.7381 70.5342C70.7381 70.5342 65.9499 84.8042 54.0247 96.5453C42.0995 108.286 27.6447 113.073 27.6447 113.073C27.6447 113.073 32.4328 98.8033 44.358 87.0621C56.2833 75.321 70.7381 70.5342 70.7381 70.5342Z" fill="white" stroke="#95C11F" stroke-width="2" stroke-miterlimit="10"/>
<path d="M27.6447 28.1758C27.6447 28.1758 32.4328 42.4458 44.2677 54.0966C56.1026 65.7475 70.5574 70.5342 70.5574 70.5342C70.5574 70.5342 65.7692 56.2642 53.9343 44.6134C42.0995 32.9626 27.6447 28.1758 27.6447 28.1758Z" fill="white" stroke="#95C11F" stroke-width="2" stroke-miterlimit="10"/>
<path d="M71.0092 70.5342C71.0092 70.5342 75.7973 84.8042 87.7225 96.5453C99.6478 108.286 114.103 113.073 114.103 113.073C114.103 113.073 109.314 98.8033 97.3892 87.0621C85.464 75.321 71.0092 70.5342 71.0092 70.5342Z" fill="white" stroke="#95C11F" stroke-width="2" stroke-miterlimit="10"/>
</svg>
